<svg width="32" height="32" viewBox="0 0 32 32" fill="none" xmlns="http://www.w3.org/2000/svg">
<path fill-rule="evenodd" clip-rule="evenodd" d="M24.4017 17.1339C24.9622 17.0228 25.3853 16.5186 25.3853 15.9134C25.3853 15.2268 24.8406 14.6702 24.1688 14.6702H23.6773H22.2234H21.7319H21.4549H20.9634H18.7309C18.7185 14.6702 18.7091 14.6589 18.7111 14.6465L19.2005 11.552C19.2821 11.036 19.2583 10.5084 19.129 10.0027C18.8891 9.06413 18.412 7.67719 17.6865 7.67719C17.5799 7.67719 17.4852 7.69129 17.4011 7.71578C16.7997 7.89094 16.7414 8.60445 16.7414 8.60445L16.5818 9.56671C16.4371 10.4385 16.1489 11.279 15.7292 12.0522L13.868 15.4815V23.6723C14.3801 23.6723 14.6841 23.8062 14.8635 23.953C15.1538 24.1906 15.5095 24.3291 15.8813 24.3291H19.5597H19.5769H20.0512H20.0684H22.2736H22.765C23.4369 24.3291 23.9816 23.7724 23.9816 23.0859C23.9816 22.6545 23.7666 22.2745 23.4402 22.0516C23.3856 22.0143 23.4015 21.9282 23.4659 21.9155C24.0263 21.8044 24.4495 21.3002 24.4495 20.6951C24.4495 20.2637 24.2345 19.8838 23.9081 19.6608C23.8536 19.6236 23.8694 19.5374 23.9338 19.5247C24.4943 19.4136 24.9174 18.9094 24.9174 18.3043C24.9174 17.8729 24.7024 17.4929 24.376 17.27C24.3214 17.2328 24.3373 17.1466 24.4017 17.1339Z" fill="#69BE3C"/>
<path d="M24.4017 17.1339C24.9622 17.0228 25.3853 16.5186 25.3853 15.9134C25.3853 15.2268 24.8406 14.6702 24.1688 14.6702H23.6773H22.2234H21.7319H21.4549H20.9634H18.7309C18.7185 14.6702 18.7091 14.6589 18.7111 14.6465L19.2005 11.552C19.2821 11.036 19.2583 10.5084 19.129 10.0027C18.8891 9.06413 18.412 7.67719 17.6865 7.67719C17.5799 7.67719 17.4852 7.69129 17.4011 7.71578C16.7997 7.89094 16.7414 8.60445 16.7414 8.60445L16.5818 9.56671C16.4371 10.4385 16.1489 11.279 15.7292 12.0522L13.868 15.4815V23.6723C14.3801 23.6723 14.6841 23.8062 14.8635 23.953C15.1538 24.1906 15.5095 24.3291 15.8813 24.3291H19.5597H19.5769H20.0512H20.0684H22.2736H22.765C23.4369 24.3291 23.9816 23.7724 23.9816 23.0859C23.9816 22.6545 23.7666 22.2745 23.4402 22.0516C23.3856 22.0143 23.4015 21.9282 23.4659 21.9155C24.0263 21.8044 24.4495 21.3002 24.4495 20.6951C24.4495 20.2637 24.2345 19.8838 23.9081 19.6608C23.8536 19.6236 23.8694 19.5374 23.9338 19.5247C24.4943 19.4136 24.9174 18.9094 24.9174 18.3043C24.9174 17.8729 24.7024 17.4929 24.376 17.27C24.3214 17.2328 24.3373 17.1466 24.4017 17.1339" stroke="#69BE3C"/>
<path d="M11.9099 14.706H8.04998C7.80459 14.706 7.60498 14.9432 7.60498 15.2347V23.7647C7.60498 24.0561 7.80459 24.2933 8.04998 24.2933H11.9099C12.1553 24.2933 12.355 24.0561 12.355 23.7647V15.2347C12.355 14.9432 12.1553 14.706 11.9099 14.706" stroke="#69BE3C" stroke-width="1.5"/>
</svg>
