<svg width="32" height="32" viewBox="0 0 32 32" fill="none" xmlns="http://www.w3.org/2000/svg">
<path fill-rule="evenodd" clip-rule="evenodd" d="M8.59828 14.8661C8.03781 14.9772 7.61467 15.4814 7.61467 16.0866C7.61467 16.7732 8.15937 17.3298 8.83124 17.3298H9.3227H10.7766H11.2681H11.5451H12.0366H14.2691C14.2815 17.3298 14.2909 17.3411 14.2889 17.3535L13.7995 20.448C13.7179 20.964 13.7417 21.4916 13.871 21.9973C14.1109 22.9359 14.588 24.3228 15.3135 24.3228C15.4201 24.3228 15.5148 24.3087 15.5989 24.2842C16.2003 24.1091 16.2586 23.3955 16.2586 23.3955L16.4182 22.4333C16.5629 21.5615 16.8511 20.721 17.2708 19.9478L19.132 16.5185V8.32772C18.6199 8.32772 18.3159 8.19381 18.1365 8.04698C17.8462 7.80944 17.4905 7.67093 17.1187 7.67093H13.4403H13.4231H12.9488H12.9316H10.7264H10.235C9.56312 7.67093 9.01841 8.22757 9.01841 8.91411C9.01841 9.34546 9.23342 9.72546 9.55983 9.94837C9.6144 9.98567 9.59852 10.0718 9.53407 10.0845C8.97366 10.1956 8.55052 10.6998 8.55052 11.3049C8.55052 11.7363 8.76552 12.1162 9.09193 12.3392C9.14645 12.3764 9.13062 12.4626 9.06617 12.4753C8.5057 12.5864 8.08256 13.0906 8.08256 13.6957C8.08256 14.1271 8.29757 14.5071 8.62398 14.73C8.67855 14.7672 8.66273 14.8534 8.59828 14.8661Z" fill="#FF3F28"/>
<path d="M8.59828 14.8661C8.03781 14.9772 7.61467 15.4814 7.61467 16.0866C7.61467 16.7732 8.15937 17.3298 8.83124 17.3298H9.3227H10.7766H11.2681H11.5451H12.0366H14.2691C14.2815 17.3298 14.2909 17.3411 14.2889 17.3535L13.7995 20.448C13.7179 20.964 13.7417 21.4916 13.871 21.9973C14.1109 22.9359 14.588 24.3228 15.3135 24.3228C15.4201 24.3228 15.5148 24.3087 15.5989 24.2842C16.2003 24.1091 16.2586 23.3955 16.2586 23.3955L16.4182 22.4333C16.5629 21.5615 16.8511 20.721 17.2708 19.9478L19.132 16.5185V8.32772C18.6199 8.32772 18.3159 8.19381 18.1365 8.04698C17.8462 7.80944 17.4905 7.67093 17.1187 7.67093H13.4403H13.4231H12.9488H12.9316H10.7264H10.235C9.56312 7.67093 9.01841 8.22757 9.01841 8.91411C9.01841 9.34546 9.23342 9.72546 9.55983 9.94837C9.6144 9.98567 9.59852 10.0718 9.53407 10.0845C8.97366 10.1956 8.55052 10.6998 8.55052 11.3049C8.55052 11.7363 8.76552 12.1162 9.09193 12.3392C9.14645 12.3764 9.13062 12.4626 9.06617 12.4753C8.5057 12.5864 8.08256 13.0906 8.08256 13.6957C8.08256 14.1271 8.29757 14.5071 8.62398 14.73C8.67855 14.7672 8.66273 14.8534 8.59828 14.8661" stroke="#FF3F28" stroke-width="1.5"/>
<path d="M21.0901 17.294H24.95C25.1954 17.294 25.395 17.0568 25.395 16.7653V8.23534C25.395 7.94386 25.1954 7.70668 24.95 7.70668H21.0901C20.8447 7.70668 20.645 7.94386 20.645 8.23534V16.7653C20.645 17.0568 20.8447 17.294 21.0901 17.294" stroke="#FF3F28" stroke-width="1.5"/>
</svg>
